<?xml version="1.0" encoding="UTF-8"?>
<svg version="1.1" xmlns="http://www.w3.org/2000/svg" width="500" height="500">
<path d="M0 0 C5.13940067 4.37827645 8.88503026 9.01630771 12.3125 14.8125 C13.02019531 15.99972656 13.02019531 15.99972656 13.7421875 17.2109375 C18.24722968 25.44796728 20.16890279 34.30161816 20.75 43.625 C21.15710843 48.7175564 22.07637998 52.7628802 25.3125 56.8125 C28.11725618 59.17650878 31.13356653 60.99454742 34.3125 62.8125 C48.69193342 71.18588958 59.30354873 81.42856826 63.72265625 98.06640625 C66.57051678 116.15314959 64.15960454 131.82016329 53.3125 146.8125 C52.19875 148.3903125 52.19875 148.3903125 51.0625 150 C39.94000865 161.37527524 25.82881336 167.42409314 10 168.125 C1.77213006 167.90421637 -6.45841076 165.80766841 -14.0625 162.75 C-30.16715901 156.61601958 -45.12993857 159.33456884 -60.9777832 164.69140625 C-75.93478616 169.71316782 -90.7473849 168.60792888 -105 161.625 C-119.70979014 153.76003391 -127.54999846 142.47975676 -132.6875 126.8125 C-136.3326787 114.02317708 -134.45225378 98.59264904 -128.6875 86.8125 C-126.31459624 82.85104143 -123.68730383 79.3180847 -120.6875 75.8125 C-120.16671875 75.16925781 -119.6459375 74.52601563 -119.109375 73.86328125 C-115.08811025 69.34443577 -110.12865236 66.54555547 -104.83740234 63.73950195 C-97.79726345 59.97354892 -93.19596489 56.58625752 -90.6875 48.8125 C-90.28760514 46.26217716 -89.9777179 43.69642121 -89.75 41.125 C-88.05074634 25.09258815 -81.9149478 13.25510795 -70.6875 1.8125 C-70.13320312 1.23371094 -69.57890625 0.65492188 -69.0078125 0.05859375 C-49.77349742 -18.26663679 -19.69814539 -15.23717386 0 0 Z " fill="#6D6D6D" transform="translate(284.6875,217.1875)"/>
<path d="M0 0 C11.94218733 5.755271 17.35427839 18.3904763 21.58203125 30.21875 C25.27137113 41.57459048 27.16380079 54.87156597 21.91015625 66.0078125 C16.92780163 74.30196755 10.00305529 80.67975061 0.58203125 83.21875 C-9.78851101 84.40702764 -18.94297102 83.89447962 -27.5546875 77.67578125 C-34.08424325 72.40144509 -38.1561096 66.30390444 -40.41796875 58.21875 C-42.24809219 40.21544271 -36.60749323 21.35070769 -25.48046875 7.03125 C-18.42453062 -0.17642874 -9.80538329 -3.16813677 0 0 Z " fill="#6D6D6D" transform="translate(302.41796875,116.78125)"/>
<path d="M0 0 C11.94218733 5.755271 17.35427839 18.3904763 21.58203125 30.21875 C25.27137113 41.57459048 27.16380079 54.87156597 21.91015625 66.0078125 C16.92780163 74.30196755 10.00305529 80.67975061 0.58203125 83.21875 C-9.78851101 84.40702764 -18.94297102 83.89447962 -27.5546875 77.67578125 C-34.08424325 72.40144509 -38.1561096 66.30390444 -40.41796875 58.21875 C-42.24809219 40.21544271 -36.60749323 21.35070769 -25.48046875 7.03125 C-18.42453062 -0.17642874 -9.80538329 -3.16813677 0 0 Z " fill="#6D6D6D" transform="translate(213.41796875,116.78125)"/>
<path d="M0 0 C11.67118876 8.82898217 17.72261454 23.82705524 20.58203125 37.85546875 C21.8676617 47.52773519 22.43179963 57.52978745 17 66 C16.5875 66.69480469 16.175 67.38960938 15.75 68.10546875 C11.23330191 74.94467353 4.56172923 79.2518224 -3.3125 81.4375 C-13.18712068 83.11234732 -22.71929596 81.71864006 -31 76 C-37.56939985 70.67161329 -42.35364135 64.41472198 -44 56 C-45.39257105 39.10651513 -40.82464709 20.12067364 -29.82421875 6.97265625 C-21.54412541 -1.981192 -11.72268989 -6.74217786 0 0 Z " fill="#6E6E6E" transform="translate(147,195)"/>
<path d="M0 0 C11.85624415 8.24067663 18.4181964 22.07344761 21 36 C21.46452634 40.19296142 21.63855915 44.34548415 21.6875 48.5625 C21.71638306 50.06043091 21.71638306 50.06043091 21.74584961 51.58862305 C21.60477638 60.408285 18.5131528 67.06273 12.25 73.3125 C4.54386449 80.51637342 -3.60436402 82.09062198 -14 82 C-22.11336217 81.39948343 -29.39035907 77.6638194 -35.08203125 71.88671875 C-42.99180541 62.24512036 -43.9984697 53.14507643 -43 41 C-40.84645208 25.22526149 -34.24506716 10.6593159 -21.94140625 0.41015625 C-15.1735546 -4.50572795 -7.03597333 -4.221584 0 0 Z " fill="#6E6E6E" transform="translate(375,195)"/>
</svg>
