<?xml version="1.0" standalone="no"?>
<!DOCTYPE svg PUBLIC "-//W3C//DTD SVG 20010904//EN"
 "http://www.w3.org/TR/2001/REC-SVG-20010904/DTD/svg10.dtd">
<svg version="1.0" xmlns="http://www.w3.org/2000/svg"
 width="500.000000pt" height="500.000000pt" viewBox="0 0 500.000000 500.000000"
 preserveAspectRatio="xMidYMid meet">

<g transform="translate(0.000000,500.000000) scale(0.100000,-0.100000)"
fill="#000000" stroke="none">
<path d="M2401 4240 c-163 -60 -408 -203 -756 -444 -206 -143 -527 -376 -562
-409 -76 -71 -163 -421 -205 -827 -17 -163 -17 -745 0 -1000 19 -283 49 -546
66 -579 29 -54 69 -78 183 -105 191 -45 584 -106 685 -106 l37 0 3 548 3 547
27 73 c39 108 84 178 168 262 81 81 152 124 265 162 100 33 270 33 369 0 213
-71 357 -212 434 -424 l27 -73 3 -547 3 -548 37 0 c101 0 494 61 685 106 113
27 154 51 181 103 18 34 41 225 63 516 21 290 24 882 5 1070 -29 277 -81 540
-141 704 -33 91 -50 114 -123 167 l-47 35 -3 239 -3 238 -30 43 c-68 97 -189
134 -293 89 -86 -37 -134 -105 -148 -208 -3 -29 -8 -52 -10 -52 -1 0 -81 51
-176 114 -209 137 -395 243 -503 287 -100 41 -170 46 -244 19z"/>
<path d="M2399 2054 c-97 -34 -191 -134 -219 -234 -6 -21 -10 -249 -10 -557
l0 -523 330 0 331 0 -3 543 -3 542 -34 63 c-61 111 -155 172 -276 178 -47 3
-85 -1 -116 -12z"/>
</g>
</svg>
