<?xml version="1.0" encoding="UTF-8"?>
<svg version="1.1" xmlns="http://www.w3.org/2000/svg" width="500" height="500">
<path d="M0 0 C3.61876536 2.14931458 7.24984322 4.27647823 10.88525391 6.39746094 C12.17318027 7.1494086 13.46110345 7.90136172 14.74902344 8.65332031 C16.62029916 9.74573559 18.4916141 10.83808251 20.36322021 11.92993164 C27.73039168 16.23103088 35.04166821 20.61244832 42.29614258 25.1015625 C45.12521777 26.85035534 47.963786 28.58215409 50.80712891 30.30761719 C64.28838739 38.5226586 76.95607091 46.98622914 88.36572266 57.99902344 C89.01412109 58.62164062 89.66251953 59.24425781 90.33056641 59.88574219 C101.6341417 71.68400349 104.30733051 87.31065684 104.36572266 102.99902344 C103.76336104 124.83582326 100.11843725 146.55703236 96.99023438 168.13696289 C96.26223328 173.15928872 95.54872696 178.18354753 94.83918858 183.2085104 C81.76785482 275.604225 81.76785482 275.604225 61.24072266 292.62402344 C37.76438107 309.80088003 8.53744847 308.31873296 -19.12477279 308.30060601 C-22.40419304 308.29952345 -25.68359446 308.30445218 -28.96301061 308.30921143 C-36.71615926 308.32024478 -44.46925944 308.3207796 -52.22241211 308.31469727 C-60.15617447 308.3086678 -68.08975903 308.32095668 -76.02349108 308.34226733 C-82.89292197 308.36002413 -89.762297 308.36586263 -96.63174993 308.36262959 C-100.70896303 308.36083824 -104.7860494 308.36323264 -108.8632412 308.37734413 C-170.36905008 308.57183352 -170.36905008 308.57183352 -191.44677734 288.68652344 C-213.79915653 265.05914223 -214.73404345 224.16690446 -219.11297607 193.6270752 C-219.67432359 189.72031729 -220.23998004 185.81419293 -220.80664062 181.90820312 C-222.04689497 173.35601027 -223.28012679 164.80281886 -224.50927734 156.24902344 C-224.60927158 155.55373283 -224.70926582 154.85844223 -224.81229019 154.14208221 C-225.48321776 149.47512672 -226.14962438 144.80754625 -226.81396484 140.13964844 C-226.98344131 138.95917938 -227.15291779 137.77871033 -227.32752991 136.56246948 C-228.88741141 125.55185163 -229.83419177 114.81178246 -229.88427734 103.68652344 C-229.91521484 101.98592773 -229.91521484 101.98592773 -229.94677734 100.25097656 C-230.02295268 83.54001179 -225.37026879 69.13585149 -213.83447266 56.92041016 C-200.95714351 44.02392972 -184.59593817 35.17191212 -169.01855469 26.00537109 C-163.7649824 22.89082362 -158.5568567 19.70277174 -153.34509277 16.51895142 C-141.09453481 9.04123681 -128.76818132 1.70029147 -116.32519531 -5.45361328 C-114.58010015 -6.45709842 -112.83681786 -7.46374541 -111.09570312 -8.47412109 C-101.21610213 -14.19828516 -91.45076422 -19.26484704 -80.63427734 -23.00097656 C-79.49732422 -23.39929688 -79.49732422 -23.39929688 -78.33740234 -23.80566406 C-50.06548269 -31.80508319 -23.112516 -13.78318063 0 0 Z M-122.63427734 201.99902344 C-124.45415723 205.63878321 -124.20744211 210.13623795 -123.02490234 213.97949219 C-120.98723085 216.93869489 -118.20075524 218.57962743 -115.19677734 220.43652344 C-114.56787598 220.83121826 -113.93897461 221.22591309 -113.29101562 221.63256836 C-92.30192537 234.56386972 -67.55929605 239.70270935 -43.32177734 234.37402344 C-32.10430077 231.6656399 -21.75078136 227.61687634 -11.94677734 221.49902344 C-11.37024414 221.14364502 -10.79371094 220.7882666 -10.19970703 220.42211914 C-6.27562401 217.83897872 -3.86622773 215.12163083 -1.63427734 210.99902344 C-1.17101357 208.1205418 -1.63895564 205.73194066 -2.63427734 202.99902344 C-4.9884611 200.05929063 -4.9884611 200.05929063 -7.63427734 197.99902344 C-8.12927734 197.50402344 -8.12927734 197.50402344 -8.63427734 196.99902344 C-16.1444484 196.02996911 -19.68247489 197.89934675 -25.82177734 202.12011719 C-40.78027195 212.11322261 -59.47506574 214.35296749 -76.98193359 211.34277344 C-87.36453089 209.18143735 -97.07271986 204.85623266 -105.78271484 198.81542969 C-109.11472176 196.69298692 -110.84640605 196.35073307 -114.66943359 196.53417969 C-118.23776992 197.37837854 -120.10090718 199.40386376 -122.63427734 201.99902344 Z " fill="#A4A0A0" transform="translate(312.63427734375,108.0009765625)"/>
</svg>
