<?xml version="1.0" encoding="UTF-8"?>
<svg version="1.1" xmlns="http://www.w3.org/2000/svg" width="500" height="500">
<path d="M0 0 C0.82395264 -0.00563965 1.64790527 -0.0112793 2.49682617 -0.01708984 C18.84144209 0.17676529 32.46246931 6.88196922 44.296875 17.86328125 C54.43781758 28.25277634 60.97912844 42.05152435 61.0234375 56.6328125 C61.0300943 57.41332977 61.0367511 58.19384705 61.04360962 58.99801636 C61.05368453 60.64351059 61.05842825 62.28904526 61.05810547 63.93457031 C61.0624521 66.41021938 61.09875052 68.88404358 61.13671875 71.359375 C61.20473626 81.03607977 60.22185199 89.18000184 56.6875 98.3125 C56.37643311 99.20388672 56.06536621 100.09527344 55.74487305 101.01367188 C51.93854971 111.85139204 44.94361708 121.20666835 38.01953125 130.2421875 C35.61440919 133.40873012 33.29685433 136.62986898 31 139.875 C25.27842171 147.93527624 19.399969 155.87817446 13.52392578 163.82617188 C11.67846297 166.32473519 9.8366491 168.82594485 7.99609375 171.328125 C2.32274637 179.04031971 -3.36864025 186.73626269 -9.125 194.38671875 C-12.06777839 198.32268484 -14.97205281 202.28622612 -17.87353516 206.25268555 C-20.4988397 209.84108474 -23.1310132 213.42418204 -25.7734375 217 C-31.04363213 224.13266978 -36.30911777 231.26442156 -41.4375 238.5 C-46.45815214 245.57916087 -51.67080975 252.50900251 -56.90039062 259.43457031 C-58.21825524 261.1871662 -59.52566048 262.94687956 -60.828125 264.7109375 C-72.06090121 279.87900606 -83.40089806 290.67418079 -102.3125 295.3125 C-105.2041554 295.7107437 -108.08567378 295.91403903 -111 296.0625 C-111.79019531 296.10342773 -112.58039063 296.14435547 -113.39453125 296.18652344 C-119.91870468 296.44419641 -125.95906777 295.88457913 -132.3125 294.3125 C-133.18261719 294.10496094 -134.05273438 293.89742188 -134.94921875 293.68359375 C-150.95140196 289.39510667 -163.2401405 278.53126395 -171.4609375 264.32836914 C-175.83151227 256.10631318 -178.66489943 247.27864624 -181.6875 238.5 C-182.26794717 236.83000485 -182.84884213 235.16016528 -183.43017578 233.49047852 C-186.96150986 223.32639561 -190.41101808 213.13660414 -193.78125 202.91796875 C-197.13636167 192.77305737 -200.70884528 182.69928828 -204.3671875 172.66015625 C-209.28424327 159.15210217 -213.94877042 145.58065775 -218.41894531 131.91918945 C-218.85683868 130.58655953 -219.29530512 129.25411776 -219.734375 127.921875 C-219.94580139 127.27961472 -220.15722778 126.63735443 -220.37506104 125.97563171 C-222.18122892 120.5592427 -224.24081516 115.27650031 -226.40332031 109.99316406 C-227.3125 107.3125 -227.3125 107.3125 -227.3125 103.3125 C-229.91766319 105.14442028 -232.52141272 106.97834085 -235.125 108.8125 C-235.89730957 109.35551758 -236.66961914 109.89853516 -237.46533203 110.45800781 C-240.93192882 112.9010231 -244.3896946 115.34934842 -247.78515625 117.890625 C-248.74292969 118.60734375 -249.70070312 119.3240625 -250.6875 120.0625 C-251.93660156 121.01382813 -251.93660156 121.01382813 -253.2109375 121.984375 C-255.3125 123.3125 -255.3125 123.3125 -258.3125 123.3125 C-259.75426296 121.25283863 -260.97281074 119.25315026 -262.1875 117.0625 C-266.49923079 109.56983349 -271.14055255 102.33121996 -275.88232422 95.10449219 C-276.92207865 93.5182123 -277.95860984 91.92981285 -278.99121094 90.33886719 C-280.04190515 88.7274921 -281.11484285 87.13062567 -282.1953125 85.5390625 C-283.56803624 82.80321449 -283.90319527 81.32840757 -283.3125 78.3125 C-281.36328125 76.171875 -281.36328125 76.171875 -278.625 74.0625 C-277.614375 73.28003906 -276.60375 72.49757813 -275.5625 71.69140625 C-271.93324726 69.00545388 -268.229668 66.42905665 -264.49438477 63.89282227 C-260.08374597 60.88886472 -255.8144788 57.7237598 -251.5625 54.5 C-245.99314767 50.28056926 -240.35250042 46.1895313 -234.625 42.1875 C-228.38347204 37.8229584 -222.31035404 33.2985321 -216.30078125 28.62109375 C-211.71418065 25.07771996 -207.02502692 21.68560335 -202.3125 18.3125 C-201.44625 17.68214844 -200.58 17.05179688 -199.6875 16.40234375 C-188.94215562 8.68731753 -178.83519687 4.01302162 -165.3125 5.3125 C-153.13506557 7.54561118 -143.07815011 12.5332415 -135.3125 22.3125 C-130.39950497 30.8866796 -127.81088863 39.94794142 -125.58786011 49.4954834 C-124.65537085 53.49714338 -123.67644398 57.48762599 -122.70703125 61.48046875 C-122.50807755 62.30580109 -122.30912384 63.13113342 -122.10414124 63.98147583 C-120.29392092 71.46887354 -118.3325799 78.91157586 -116.34115601 86.35244751 C-112.82531356 99.49651824 -109.45150371 112.67406814 -106.15625 125.875 C-105.9751726 126.60032677 -105.79409519 127.32565353 -105.60753059 128.0729599 C-103.77052046 135.43436749 -101.93892247 142.79710607 -100.11425591 150.16158295 C-99.42681422 152.93473334 -98.7376818 155.70746208 -98.04830933 158.48013306 C-97.56702184 160.41916946 -97.08841848 162.35887145 -96.60986328 164.29858398 C-96.32151611 165.45849854 -96.03316895 166.61841309 -95.73608398 167.81347656 C-95.48422836 168.83137268 -95.23237274 169.8492688 -94.97288513 170.89801025 C-94.40075575 173.29882398 -94.40075575 173.29882398 -93.3125 175.3125 C-90.59998055 174.96899317 -89.51680361 174.54004193 -87.6640625 172.4765625 C-86.80941406 171.21972656 -86.80941406 171.21972656 -85.9375 169.9375 C-85.24785156 168.94878906 -84.55820312 167.96007812 -83.84765625 166.94140625 C-83.45465332 166.37437988 -83.06165039 165.80735352 -82.65673828 165.22314453 C-79.96190408 161.39281898 -77.1589691 157.64073918 -74.375 153.875 C-73.46016846 152.63351196 -73.46016846 152.63351196 -72.52685547 151.36694336 C-69.22876822 146.89324331 -65.9105916 142.43637004 -62.5625 138 C-59.31664596 133.68635099 -56.1399449 129.32846263 -53 124.9375 C-52.59104492 124.36604248 -52.18208984 123.79458496 -51.76074219 123.20581055 C-50.60352682 121.58023251 -49.45785296 119.94645776 -48.3125 118.3125 C-47.57515625 117.26835937 -46.8378125 116.22421875 -46.078125 115.1484375 C-43.78484938 111.46499037 -43.10591736 108.61630502 -43.3125 104.3125 C-45.03581695 99.04117757 -47.50971774 96.93464681 -52.3125 94.3125 C-55.52303264 93.57976801 -58.71864073 93.34186711 -62 93.125 C-62.91322021 93.05095947 -63.82644043 92.97691895 -64.76733398 92.90063477 C-71.92475621 92.34266534 -79.09698538 91.94236732 -86.27026367 91.65356445 C-89.75422536 91.5054323 -92.95258917 91.23662678 -96.3125 90.3125 C-92.36172398 71.70226559 -84.056333 53.36361819 -72.3125 38.3125 C-71.6525 38.3125 -70.9925 38.3125 -70.3125 38.3125 C-69.90837891 37.43464844 -69.90837891 37.43464844 -69.49609375 36.5390625 C-60.02014964 18.71302903 -39.43834705 7.98010477 -20.9453125 2.2734375 C-13.9591506 0.51456851 -7.1696316 0.04628555 0 0 Z " fill="#00D6DF" transform="translate(361.3125,101.6875)"/>
<path d="M0 0 C0.82395264 -0.00563965 1.64790527 -0.0112793 2.49682617 -0.01708984 C18.84144209 0.17676529 32.46246931 6.88196922 44.296875 17.86328125 C54.43781758 28.25277634 60.97912844 42.05152435 61.0234375 56.6328125 C61.0334227 57.80358841 61.0334227 57.80358841 61.04360962 58.99801636 C61.05368453 60.64351059 61.05842825 62.28904526 61.05810547 63.93457031 C61.0624521 66.41021938 61.09875052 68.88404358 61.13671875 71.359375 C61.20473626 81.03607977 60.22185199 89.18000184 56.6875 98.3125 C56.22089966 99.64958008 56.22089966 99.64958008 55.74487305 101.01367188 C51.93854971 111.85139204 44.94361708 121.20666835 38.01953125 130.2421875 C35.61440919 133.40873012 33.29685433 136.62986898 31 139.875 C25.27842171 147.93527624 19.399969 155.87817446 13.52392578 163.82617188 C11.67846297 166.32473519 9.8366491 168.82594485 7.99609375 171.328125 C2.32274637 179.04031971 -3.36864025 186.73626269 -9.125 194.38671875 C-12.06777839 198.32268484 -14.97205281 202.28622612 -17.87353516 206.25268555 C-20.4988397 209.84108474 -23.1310132 213.42418204 -25.7734375 217 C-31.04363213 224.13266978 -36.30911777 231.26442156 -41.4375 238.5 C-46.45815214 245.57916087 -51.67080975 252.50900251 -56.90039062 259.43457031 C-58.21825524 261.1871662 -59.52566048 262.94687956 -60.828125 264.7109375 C-68.52289096 275.10148881 -76.02743612 285.07290754 -88.3125 290.3125 C-89.3025 290.3125 -90.2925 290.3125 -91.3125 290.3125 C-91.54695649 275.67368185 -91.7228568 261.03511484 -91.83062172 246.39479542 C-91.8820082 239.59564456 -91.95195521 232.79766567 -92.06689453 225.99926758 C-92.17788753 219.43110825 -92.23544191 212.86370581 -92.26127243 206.29465294 C-92.27966582 203.79601642 -92.315585 201.29744193 -92.36980057 198.79932594 C-92.84129612 176.16148981 -92.84129612 176.16148981 -86.48413086 168.48730469 C-84.79469273 166.72862594 -83.07346744 164.9995524 -81.3125 163.3125 C-80.03872774 161.66950864 -78.7908352 160.00551328 -77.58984375 158.30859375 C-77.03651367 157.55473389 -76.48318359 156.80087402 -75.91308594 156.02416992 C-75.36426758 155.27369385 -74.81544922 154.52321777 -74.25 153.75 C-70.38202469 148.47829026 -66.50345325 143.2174036 -62.5625 138 C-59.31664596 133.68635099 -56.1399449 129.32846263 -53 124.9375 C-52.59104492 124.36604248 -52.18208984 123.79458496 -51.76074219 123.20581055 C-50.60352682 121.58023251 -49.45785296 119.94645776 -48.3125 118.3125 C-47.20648438 116.74628906 -47.20648438 116.74628906 -46.078125 115.1484375 C-43.78484938 111.46499037 -43.10591736 108.61630502 -43.3125 104.3125 C-45.03581695 99.04117757 -47.50971774 96.93464681 -52.3125 94.3125 C-55.52303264 93.57976801 -58.71864073 93.34186711 -62 93.125 C-62.91322021 93.05095947 -63.82644043 92.97691895 -64.76733398 92.90063477 C-71.92475621 92.34266534 -79.09698538 91.94236732 -86.27026367 91.65356445 C-89.75422536 91.5054323 -92.95258917 91.23662678 -96.3125 90.3125 C-92.36172398 71.70226559 -84.056333 53.36361819 -72.3125 38.3125 C-71.6525 38.3125 -70.9925 38.3125 -70.3125 38.3125 C-70.04308594 37.72726563 -69.77367187 37.14203125 -69.49609375 36.5390625 C-60.02014964 18.71302903 -39.43834705 7.98010477 -20.9453125 2.2734375 C-13.9591506 0.51456851 -7.1696316 0.04628555 0 0 Z " fill="#00AADF" transform="translate(361.3125,101.6875)"/>
</svg>
