<?xml version="1.0" encoding="UTF-8"?>
<svg version="1.1" xmlns="http://www.w3.org/2000/svg" width="500" height="500">
<path d="M0 0 C11.21076644 9.59953677 20.35303281 23.54860654 21.56005859 38.57861328 C21.60077496 42.01060865 21.64089775 45.44178699 21.64013672 48.87402344 C21.64447983 51.06005603 21.6807769 53.24401495 21.71875 55.4296875 C21.79304241 64.59018855 20.62661677 72.32582663 17.26953125 80.9609375 C16.98706543 81.69344727 16.70459961 82.42595703 16.41357422 83.18066406 C10.81046277 96.81362346 2.12275612 108.27096099 -6.7109375 119.9375 C-9.51252651 123.64980574 -12.23029156 127.41563714 -14.91796875 131.2109375 C-18.67602163 136.5156366 -22.54251463 141.72609807 -26.4609375 146.9140625 C-28.86944042 150.14750876 -31.21213835 153.4214108 -33.54296875 156.7109375 C-37.66317915 162.52016824 -41.9035472 168.23013482 -46.18969727 173.91772461 C-49.65127077 178.51371203 -53.0807137 183.13153267 -56.48046875 187.7734375 C-56.93728027 188.39710205 -57.3940918 189.0207666 -57.86474609 189.66333008 C-60.52073508 193.29472308 -63.15901617 196.93852019 -65.79296875 200.5859375 C-68.72089224 204.62383199 -71.73698647 208.58254258 -74.79296875 212.5234375 C-77.65389957 216.21404362 -80.45389154 219.92832797 -83.10546875 223.7734375 C-95.85560903 242.17694186 -108.01409328 258.84122428 -130.73046875 264.9609375 C-147.11234315 267.68864464 -163.68695209 265.09775604 -177.73046875 255.8984375 C-179.07524786 254.93505062 -180.41003894 253.9574365 -181.73046875 252.9609375 C-183.24640625 251.8471875 -183.24640625 251.8471875 -184.79296875 250.7109375 C-185.43234375 250.1334375 -186.07171875 249.5559375 -186.73046875 248.9609375 C-186.73046875 248.3009375 -186.73046875 247.6409375 -186.73046875 246.9609375 C-187.39046875 246.9609375 -188.05046875 246.9609375 -188.73046875 246.9609375 C-201.59521228 233.14576437 -206.35332418 210.24656157 -212.10546875 192.7734375 C-214.32254106 186.06387658 -216.70322044 179.41876035 -219.10546875 172.7734375 C-224.15598272 158.79945519 -229.08871542 144.79195738 -233.87890625 130.7265625 C-234.1625 129.8946489 -234.44609375 129.06273529 -234.73828125 128.20561218 C-236.17036976 124.00450279 -237.59991919 119.80256742 -239.02441406 115.59887695 C-241.79862419 107.43859053 -244.65772346 99.35139437 -247.86083984 91.34741211 C-248.73046875 88.9609375 -248.73046875 88.9609375 -248.73046875 86.9609375 C-251.39858094 88.83388683 -254.06467976 90.70968335 -256.73046875 92.5859375 C-257.47425781 93.10800781 -258.21804688 93.63007813 -258.984375 94.16796875 C-263.42024396 97.29236341 -267.76032831 100.49013884 -272.00390625 103.87255859 C-273.73046875 104.9609375 -273.73046875 104.9609375 -276.73046875 104.9609375 C-278.35943121 102.71995499 -279.76867231 100.52896829 -281.16796875 98.1484375 C-282.05124549 96.68959655 -282.9353998 95.23128668 -283.8203125 93.7734375 C-284.28808105 92.99613281 -284.75584961 92.21882813 -285.23779297 91.41796875 C-287.84532207 87.12582401 -290.54164179 82.88993862 -293.23046875 78.6484375 C-293.74665771 77.83076904 -294.26284668 77.01310059 -294.79467773 76.1706543 C-296.7462625 73.08040151 -298.70294482 70.0022234 -300.73046875 66.9609375 C-301.21875 64.57421875 -301.21875 64.57421875 -300.73046875 61.9609375 C-298.8115448 60.09082561 -297.08771537 58.66665491 -294.91796875 57.1484375 C-294.32483887 56.71394287 -293.73170898 56.27944824 -293.12060547 55.83178711 C-291.33386753 54.52701396 -289.53321578 53.24345598 -287.73046875 51.9609375 C-285.93842598 50.64895107 -284.14673096 49.33648944 -282.35546875 48.0234375 C-281.46214844 47.37890625 -280.56882812 46.734375 -279.6484375 46.0703125 C-276.30837123 43.65580676 -272.98811141 41.21521715 -269.66796875 38.7734375 C-263.9825765 34.5954411 -258.26857364 30.45861334 -252.54296875 26.3359375 C-246.46676406 21.95917331 -240.4437277 17.52456234 -234.46484375 13.015625 C-230.77383857 10.24209825 -227.06048598 7.50314272 -223.30859375 4.8125 C-221.67816013 3.64155222 -220.06142296 2.45107847 -218.46484375 1.234375 C-210.0812775 -4.88743777 -200.03152074 -7.18188438 -189.73046875 -6.0390625 C-177.91095268 -4.05890981 -169.32209934 0.61374233 -161.73046875 9.9609375 C-152.4416576 23.33593241 -150.61618947 41.71335279 -147.26245117 57.32739258 C-146.04103929 62.88168722 -144.52296342 68.31894719 -142.91796875 73.7734375 C-140.52175456 81.92902653 -138.43585161 90.12645138 -136.48046875 98.3984375 C-133.60098073 110.5736099 -130.49234179 122.67862331 -127.29296875 134.7734375 C-126.95199158 136.06252518 -126.95199158 136.06252518 -126.60412598 137.37765503 C-125.31697041 142.23983444 -124.0255238 147.10085648 -122.73046875 151.9609375 C-118.42409669 150.06831366 -116.43283322 147.14213828 -113.85546875 143.3359375 C-113.02583018 142.13466273 -112.19508957 140.93414837 -111.36328125 139.734375 C-110.93853516 139.11965332 -110.51378906 138.50493164 -110.07617188 137.87158203 C-107.70739623 134.50836755 -105.21570555 131.23849891 -102.73046875 127.9609375 C-101.77700503 126.69817235 -100.82387578 125.43515458 -99.87109375 124.171875 C-99.39994141 123.54724365 -98.92878906 122.9226123 -98.44335938 122.27905273 C-93.98541071 116.35768868 -89.5604779 110.41416287 -85.23046875 104.3984375 C-84.83375977 103.85171387 -84.43705078 103.30499023 -84.02832031 102.74169922 C-78.70553011 95.84870012 -78.70553011 95.84870012 -76.91796875 87.7734375 C-77.32015625 86.38125 -77.32015625 86.38125 -77.73046875 84.9609375 C-77.81296875 84.2184375 -77.89546875 83.4759375 -77.98046875 82.7109375 C-78.62554555 80.67310138 -78.62554555 80.67310138 -81.23046875 79.7734375 C-82.05546875 79.5053125 -82.88046875 79.2371875 -83.73046875 78.9609375 C-84.06046875 78.6309375 -84.39046875 78.3009375 -84.73046875 77.9609375 C-87.73231506 77.57360249 -90.71845569 77.24598083 -93.73046875 76.9609375 C-94.62515869 76.87263672 -95.51984863 76.78433594 -96.44165039 76.69335938 C-103.03930566 76.06340025 -109.63545013 75.61329107 -116.25976562 75.390625 C-120.14541083 75.22084507 -123.2139612 74.64127251 -126.73046875 72.9609375 C-121.52174218 55.28451434 -114.83495773 38.12239847 -102.73046875 23.9609375 C-102.06660156 23.09339844 -101.40273438 22.22585937 -100.71875 21.33203125 C-87.935966 4.8314537 -69.90287525 -6.79972218 -49.29296875 -10.6875 C-31.55226782 -12.43822707 -14.74667278 -11.01253675 0 0 Z " fill="#6D6D6D" transform="translate(389.73046875,123.0390625)"/>
</svg>
